# MagicaVoxel @ Ephtracy

# group
o Shelf

# material
mtllib OtherSceneAssets-1-Shelf.mtl
usemtl palette

# normals
vn -1 0 0
vn 1 0 0
vn 0 0 1
vn 0 0 -1
vn 0 -1 0
vn 0 1 0

# texcoords
vt 0.224609 0.5
vt 0.955078 0.5
vt 0.974609 0.5
vt 0.982422 0.5

# verts
v 2.2 0 -14.5
v 2.2 0 -18
v 2.2 0.1 -14.7
v 2.2 0.1 -14.8
v 2.2 0.1 -17.7
v 2.2 0.1 -17.8
v 2.2 0.2 -14.7
v 2.2 0.2 -14.8
v 2.2 0.2 -17.7
v 2.2 0.2 -17.8
v 2.2 10 -14.7
v 2.2 10 -14.8
v 2.2 10 -17.7
v 2.2 10 -17.8
v 2.2 10.1 -14.7
v 2.2 10.1 -14.8
v 2.2 10.1 -17.7
v 2.2 10.1 -17.8
v 2.2 10.2 -14.5
v 2.2 10.2 -18
v 16.2 4.9 -15.2
v 16.2 4.9 -15.5
v 16.2 4.9 -17
v 16.2 4.9 -17.3
v 16.2 5 -15.2
v 16.2 5 -15.5
v 16.2 5 -17
v 16.2 5 -17.3
v 17.2 4.4 -15.2
v 17.2 4.4 -15.5
v 17.2 4.4 -17
v 17.2 4.4 -17.3
v 17.2 4.5 -15.3
v 17.2 4.5 -15.4
v 17.2 4.5 -17.1
v 17.2 4.5 -17.2
v 17.2 4.6 -15.3
v 17.2 4.6 -15.4
v 17.2 4.6 -17.1
v 17.2 4.6 -17.2
v 17.2 4.9 -15.2
v 17.2 4.9 -15.5
v 17.2 4.9 -17
v 17.2 4.9 -17.3
v 17.3 0.2 -14.5
v 17.3 0.2 -17.8
v 17.3 4.4 -15.2
v 17.3 4.4 -15.5
v 17.3 4.4 -17
v 17.3 4.4 -17.3
v 17.3 5 -14.7
v 17.3 5 -15.2
v 17.3 5 -15.5
v 17.3 5 -17
v 17.3 5 -17.3
v 17.3 5 -17.8
v 17.3 5.2 -14.7
v 17.3 5.2 -17.8
v 17.3 10 -14.5
v 17.3 10 -17.8
v 2.4 0.2 -14.5
v 2.4 0.2 -17.8
v 2.4 4.4 -15.2
v 2.4 4.4 -15.5
v 2.4 4.4 -17
v 2.4 4.4 -17.3
v 2.4 5 -14.7
v 2.4 5 -15.2
v 2.4 5 -15.5
v 2.4 5 -17
v 2.4 5 -17.3
v 2.4 5 -17.8
v 2.4 5.2 -14.7
v 2.4 5.2 -17.8
v 2.4 10 -14.5
v 2.4 10 -17.8
v 2.5 4.4 -15.2
v 2.5 4.4 -15.5
v 2.5 4.4 -17
v 2.5 4.4 -17.3
v 2.5 4.5 -15.3
v 2.5 4.5 -15.4
v 2.5 4.5 -17.1
v 2.5 4.5 -17.2
v 2.5 4.6 -15.3
v 2.5 4.6 -15.4
v 2.5 4.6 -17.1
v 2.5 4.6 -17.2
v 2.5 4.9 -15.2
v 2.5 4.9 -15.5
v 2.5 4.9 -17
v 2.5 4.9 -17.3
v 3.5 4.9 -15.2
v 3.5 4.9 -15.5
v 3.5 4.9 -17
v 3.5 4.9 -17.3
v 3.5 5 -15.2
v 3.5 5 -15.5
v 3.5 5 -17
v 3.5 5 -17.3
v 17.5 0 -14.5
v 17.5 0 -18
v 17.5 0.1 -14.7
v 17.5 0.1 -14.8
v 17.5 0.1 -17.7
v 17.5 0.1 -17.8
v 17.5 0.2 -14.7
v 17.5 0.2 -14.8
v 17.5 0.2 -17.7
v 17.5 0.2 -17.8
v 17.5 10 -14.7
v 17.5 10 -14.8
v 17.5 10 -17.7
v 17.5 10 -17.8
v 17.5 10.1 -14.7
v 17.5 10.1 -14.8
v 17.5 10.1 -17.7
v 17.5 10.1 -17.8
v 17.5 10.2 -14.5
v 17.5 10.2 -18
v 2.2 0 -14.5
v 2.2 10.2 -14.5
v 2.4 0 -14.5
v 2.4 0.2 -14.5
v 2.4 10 -14.5
v 2.4 10.2 -14.5
v 2.5 0 -14.5
v 2.5 0.2 -14.5
v 2.5 10 -14.5
v 2.5 10.2 -14.5
v 17.2 0 -14.5
v 17.2 0.2 -14.5
v 17.2 10 -14.5
v 17.2 10.2 -14.5
v 17.3 0 -14.5
v 17.3 0.2 -14.5
v 17.3 10 -14.5
v 17.3 10.2 -14.5
v 17.5 0 -14.5
v 17.5 10.2 -14.5
v 2.4 5 -14.7
v 2.4 5.2 -14.7
v 2.5 5 -14.7
v 2.5 5.2 -14.7
v 17.2 5 -14.7
v 17.2 5.2 -14.7
v 17.3 5 -14.7
v 17.3 5.2 -14.7
v 2.4 4.4 -15.2
v 2.4 5 -15.2
v 2.5 4.4 -15.2
v 2.5 4.9 -15.2
v 3.5 4.9 -15.2
v 3.5 5 -15.2
v 16.2 4.9 -15.2
v 16.2 5 -15.2
v 17.2 4.4 -15.2
v 17.2 4.9 -15.2
v 17.3 4.4 -15.2
v 17.3 5 -15.2
v 2.4 4.4 -17
v 2.4 5 -17
v 2.5 4.4 -17
v 2.5 4.9 -17
v 3.5 4.9 -17
v 3.5 5 -17
v 16.2 4.9 -17
v 16.2 5 -17
v 17.2 4.4 -17
v 17.2 4.9 -17
v 17.3 4.4 -17
v 17.3 5 -17
v 2.4 0.2 -17.8
v 2.4 5 -17.8
v 2.4 5.2 -17.8
v 2.4 10 -17.8
v 2.5 0.2 -17.8
v 17.2 0.2 -17.8
v 17.3 0.2 -17.8
v 17.3 5 -17.8
v 17.3 5.2 -17.8
v 17.3 10 -17.8
v 2.4 4.4 -15.5
v 2.4 5 -15.5
v 2.5 4.4 -15.5
v 2.5 4.9 -15.5
v 3.5 4.9 -15.5
v 3.5 5 -15.5
v 16.2 4.9 -15.5
v 16.2 5 -15.5
v 17.2 4.4 -15.5
v 17.2 4.9 -15.5
v 17.3 4.4 -15.5
v 17.3 5 -15.5
v 2.4 4.4 -17.3
v 2.4 5 -17.3
v 2.5 4.4 -17.3
v 2.5 4.9 -17.3
v 3.5 4.9 -17.3
v 3.5 5 -17.3
v 16.2 4.9 -17.3
v 16.2 5 -17.3
v 17.2 4.4 -17.3
v 17.2 4.9 -17.3
v 17.3 4.4 -17.3
v 17.3 5 -17.3
v 2.2 0 -18
v 2.2 10.2 -18
v 2.3 0.1 -18
v 2.3 10.1 -18
v 2.4 0 -18
v 2.4 0.1 -18
v 2.4 10.1 -18
v 2.4 10.2 -18
v 2.5 10.1 -18
v 2.5 10.2 -18
v 17.2 10.1 -18
v 17.2 10.2 -18
v 17.3 0 -18
v 17.3 0.1 -18
v 17.3 10.1 -18
v 17.3 10.2 -18
v 17.4 0.1 -18
v 17.4 10.1 -18
v 17.5 0 -18
v 17.5 10.2 -18
v 2.2 0 -14.5
v 2.4 0 -14.5
v 2.5 0 -14.5
v 17.2 0 -14.5
v 17.3 0 -14.5
v 17.5 0 -14.5
v 2.5 0 -14.6
v 17.2 0 -14.6
v 2.2 0 -18
v 2.4 0 -18
v 17.3 0 -18
v 17.5 0 -18
v 2.4 4.4 -15.2
v 2.5 4.4 -15.2
v 17.2 4.4 -15.2
v 17.3 4.4 -15.2
v 2.4 4.4 -15.5
v 2.5 4.4 -15.5
v 17.2 4.4 -15.5
v 17.3 4.4 -15.5
v 2.4 4.4 -17
v 2.5 4.4 -17
v 17.2 4.4 -17
v 17.3 4.4 -17
v 2.4 4.4 -17.3
v 2.5 4.4 -17.3
v 17.2 4.4 -17.3
v 17.3 4.4 -17.3
v 2.5 4.9 -15.2
v 3.5 4.9 -15.2
v 16.2 4.9 -15.2
v 17.2 4.9 -15.2
v 3.3 4.9 -15.3
v 3.4 4.9 -15.3
v 16.3 4.9 -15.3
v 16.4 4.9 -15.3
v 3.3 4.9 -15.4
v 3.4 4.9 -15.4
v 16.3 4.9 -15.4
v 16.4 4.9 -15.4
v 2.5 4.9 -15.5
v 3.5 4.9 -15.5
v 16.2 4.9 -15.5
v 17.2 4.9 -15.5
v 2.5 4.9 -17
v 3.5 4.9 -17
v 16.2 4.9 -17
v 17.2 4.9 -17
v 3.3 4.9 -17.1
v 3.4 4.9 -17.1
v 16.3 4.9 -17.1
v 16.4 4.9 -17.1
v 3.3 4.9 -17.2
v 3.4 4.9 -17.2
v 16.3 4.9 -17.2
v 16.4 4.9 -17.2
v 2.5 4.9 -17.3
v 3.5 4.9 -17.3
v 16.2 4.9 -17.3
v 17.2 4.9 -17.3
v 2.4 5 -14.7
v 2.5 5 -14.7
v 17.2 5 -14.7
v 17.3 5 -14.7
v 2.5 5 -14.8
v 17.2 5 -14.8
v 2.4 5 -15.2
v 3.5 5 -15.2
v 16.2 5 -15.2
v 17.3 5 -15.2
v 2.4 5 -15.5
v 3.5 5 -15.5
v 16.2 5 -15.5
v 17.3 5 -15.5
v 2.4 5 -17
v 3.5 5 -17
v 16.2 5 -17
v 17.3 5 -17
v 2.4 5 -17.3
v 3.5 5 -17.3
v 16.2 5 -17.3
v 17.3 5 -17.3
v 2.4 5 -17.8
v 17.3 5 -17.8
v 2.4 10 -14.5
v 2.5 10 -14.5
v 17.2 10 -14.5
v 17.3 10 -14.5
v 2.5 10 -14.7
v 17.2 10 -14.7
v 2.4 10 -17.8
v 17.3 10 -17.8
v 2.4 0.2 -14.5
v 2.5 0.2 -14.5
v 17.2 0.2 -14.5
v 17.3 0.2 -14.5
v 2.4 0.2 -17.8
v 2.5 0.2 -17.8
v 17.2 0.2 -17.8
v 17.3 0.2 -17.8
v 2.4 5.2 -14.7
v 2.5 5.2 -14.7
v 17.2 5.2 -14.7
v 17.3 5.2 -14.7
v 2.5 5.2 -17.7
v 17.2 5.2 -17.7
v 2.4 5.2 -17.8
v 17.3 5.2 -17.8
v 2.2 10.2 -14.5
v 2.4 10.2 -14.5
v 2.5 10.2 -14.5
v 17.2 10.2 -14.5
v 17.3 10.2 -14.5
v 17.5 10.2 -14.5
v 2.2 10.2 -18
v 2.4 10.2 -18
v 2.5 10.2 -18
v 17.2 10.2 -18
v 17.3 10.2 -18
v 17.5 10.2 -18

# faces
f 3/1/1 2/1/1 1/1/1
f 4/1/1 2/1/1 3/1/1
f 5/1/1 2/1/1 4/1/1
f 6/1/1 2/1/1 5/1/1
f 7/1/1 3/1/1 1/1/1
f 7/3/1 4/3/1 3/3/1
f 8/1/1 5/1/1 4/1/1
f 8/3/1 4/3/1 7/3/1
f 9/3/1 6/3/1 5/3/1
f 9/1/1 5/1/1 8/1/1
f 10/1/1 2/1/1 6/1/1
f 10/3/1 6/3/1 9/3/1
f 11/1/1 9/1/1 8/1/1
f 11/1/1 8/1/1 7/1/1
f 11/1/1 10/1/1 9/1/1
f 11/1/1 7/1/1 1/1/1
f 12/1/1 10/1/1 11/1/1
f 13/1/1 10/1/1 12/1/1
f 14/1/1 2/1/1 10/1/1
f 14/1/1 10/1/1 13/1/1
f 15/1/1 11/1/1 1/1/1
f 15/3/1 12/3/1 11/3/1
f 16/1/1 13/1/1 12/1/1
f 16/3/1 12/3/1 15/3/1
f 17/3/1 14/3/1 13/3/1
f 17/1/1 13/1/1 16/1/1
f 18/1/1 2/1/1 14/1/1
f 18/3/1 14/3/1 17/3/1
f 19/1/1 15/1/1 1/1/1
f 19/1/1 17/1/1 16/1/1
f 19/1/1 18/1/1 17/1/1
f 19/1/1 16/1/1 15/1/1
f 20/1/1 2/1/1 18/1/1
f 20/1/1 18/1/1 19/1/1
f 25/4/1 22/4/1 21/4/1
f 26/4/1 22/4/1 25/4/1
f 27/4/1 24/4/1 23/4/1
f 28/4/1 24/4/1 27/4/1
f 33/4/1 30/4/1 29/4/1
f 34/4/1 30/4/1 33/4/1
f 35/4/1 32/4/1 31/4/1
f 36/4/1 32/4/1 35/4/1
f 37/4/1 33/4/1 29/4/1
f 37/3/1 34/3/1 33/3/1
f 38/4/1 30/4/1 34/4/1
f 38/3/1 34/3/1 37/3/1
f 39/3/1 36/3/1 35/3/1
f 39/4/1 35/4/1 31/4/1
f 40/4/1 32/4/1 36/4/1
f 40/3/1 36/3/1 39/3/1
f 41/4/1 37/4/1 29/4/1
f 41/4/1 38/4/1 37/4/1
f 42/4/1 30/4/1 38/4/1
f 42/4/1 38/4/1 41/4/1
f 43/4/1 39/4/1 31/4/1
f 43/4/1 40/4/1 39/4/1
f 44/4/1 32/4/1 40/4/1
f 44/4/1 40/4/1 43/4/1
f 47/1/1 46/1/1 45/1/1
f 48/1/1 46/1/1 47/1/1
f 49/1/1 46/1/1 48/1/1
f 50/1/1 46/1/1 49/1/1
f 51/1/1 47/1/1 45/1/1
f 52/1/1 47/1/1 51/1/1
f 53/1/1 49/1/1 48/1/1
f 54/1/1 49/1/1 53/1/1
f 55/1/1 46/1/1 50/1/1
f 56/1/1 46/1/1 55/1/1
f 57/1/1 51/1/1 45/1/1
f 59/1/1 57/1/1 45/1/1
f 59/1/1 58/1/1 57/1/1
f 60/1/1 58/1/1 59/1/1
f 61/1/2 62/1/2 63/1/2
f 63/1/2 62/1/2 64/1/2
f 64/1/2 62/1/2 65/1/2
f 65/1/2 62/1/2 66/1/2
f 61/1/2 63/1/2 67/1/2
f 67/1/2 63/1/2 68/1/2
f 64/1/2 65/1/2 69/1/2
f 69/1/2 65/1/2 70/1/2
f 66/1/2 62/1/2 71/1/2
f 71/1/2 62/1/2 72/1/2
f 61/1/2 67/1/2 73/1/2
f 61/1/2 73/1/2 75/1/2
f 73/1/2 74/1/2 75/1/2
f 75/1/2 74/1/2 76/1/2
f 77/4/2 78/4/2 81/4/2
f 81/4/2 78/4/2 82/4/2
f 79/4/2 80/4/2 83/4/2
f 83/4/2 80/4/2 84/4/2
f 77/4/2 81/4/2 85/4/2
f 81/3/2 82/3/2 85/3/2
f 82/4/2 78/4/2 86/4/2
f 85/3/2 82/3/2 86/3/2
f 83/3/2 84/3/2 87/3/2
f 79/4/2 83/4/2 87/4/2
f 84/4/2 80/4/2 88/4/2
f 87/3/2 84/3/2 88/3/2
f 77/4/2 85/4/2 89/4/2
f 85/4/2 86/4/2 89/4/2
f 86/4/2 78/4/2 90/4/2
f 89/4/2 86/4/2 90/4/2
f 79/4/2 87/4/2 91/4/2
f 87/4/2 88/4/2 91/4/2
f 88/4/2 80/4/2 92/4/2
f 91/4/2 88/4/2 92/4/2
f 93/4/2 94/4/2 97/4/2
f 97/4/2 94/4/2 98/4/2
f 95/4/2 96/4/2 99/4/2
f 99/4/2 96/4/2 100/4/2
f 101/1/2 102/1/2 103/1/2
f 103/1/2 102/1/2 104/1/2
f 104/1/2 102/1/2 105/1/2
f 105/1/2 102/1/2 106/1/2
f 101/1/2 103/1/2 107/1/2
f 103/3/2 104/3/2 107/3/2
f 104/1/2 105/1/2 108/1/2
f 107/3/2 104/3/2 108/3/2
f 105/3/2 106/3/2 109/3/2
f 108/1/2 105/1/2 109/1/2
f 106/1/2 102/1/2 110/1/2
f 109/3/2 106/3/2 110/3/2
f 108/1/2 109/1/2 111/1/2
f 107/1/2 108/1/2 111/1/2
f 109/1/2 110/1/2 111/1/2
f 101/1/2 107/1/2 111/1/2
f 111/1/2 110/1/2 112/1/2
f 112/1/2 110/1/2 113/1/2
f 110/1/2 102/1/2 114/1/2
f 113/1/2 110/1/2 114/1/2
f 101/1/2 111/1/2 115/1/2
f 111/3/2 112/3/2 115/3/2
f 112/1/2 113/1/2 116/1/2
f 115/3/2 112/3/2 116/3/2
f 113/3/2 114/3/2 117/3/2
f 116/1/2 113/1/2 117/1/2
f 114/1/2 102/1/2 118/1/2
f 117/3/2 114/3/2 118/3/2
f 101/1/2 115/1/2 119/1/2
f 116/1/2 117/1/2 119/1/2
f 117/1/2 118/1/2 119/1/2
f 115/1/2 116/1/2 119/1/2
f 118/1/2 102/1/2 120/1/2
f 119/1/2 118/1/2 120/1/2
f 123/1/3 122/1/3 121/1/3
f 124/1/3 122/1/3 123/1/3
f 125/1/3 122/1/3 124/1/3
f 126/1/3 122/1/3 125/1/3
f 127/2/3 124/2/3 123/2/3
f 128/2/3 124/2/3 127/2/3
f 129/2/3 126/2/3 125/2/3
f 130/2/3 126/2/3 129/2/3
f 131/1/3 128/1/3 127/1/3
f 132/1/3 128/1/3 131/1/3
f 133/1/3 130/1/3 129/1/3
f 134/1/3 130/1/3 133/1/3
f 135/2/3 132/2/3 131/2/3
f 136/2/3 132/2/3 135/2/3
f 137/2/3 134/2/3 133/2/3
f 138/2/3 134/2/3 137/2/3
f 139/1/3 136/1/3 135/1/3
f 139/1/3 137/1/3 136/1/3
f 139/1/3 138/1/3 137/1/3
f 140/1/3 138/1/3 139/1/3
f 143/2/3 142/2/3 141/2/3
f 144/2/3 142/2/3 143/2/3
f 145/1/3 144/1/3 143/1/3
f 146/1/3 144/1/3 145/1/3
f 147/2/3 146/2/3 145/2/3
f 148/2/3 146/2/3 147/2/3
f 151/4/3 150/4/3 149/4/3
f 152/4/3 150/4/3 151/4/3
f 153/4/3 150/4/3 152/4/3
f 154/4/3 150/4/3 153/4/3
f 158/4/3 156/4/3 155/4/3
f 159/4/3 158/4/3 157/4/3
f 160/4/3 156/4/3 158/4/3
f 160/4/3 158/4/3 159/4/3
f 163/4/3 162/4/3 161/4/3
f 164/4/3 162/4/3 163/4/3
f 165/4/3 162/4/3 164/4/3
f 166/4/3 162/4/3 165/4/3
f 170/4/3 168/4/3 167/4/3
f 171/4/3 170/4/3 169/4/3
f 172/4/3 168/4/3 170/4/3
f 172/4/3 170/4/3 171/4/3
f 177/1/3 174/1/3 173/1/3
f 178/1/3 174/1/3 177/1/3
f 179/1/3 174/1/3 178/1/3
f 180/1/3 174/1/3 179/1/3
f 181/1/3 176/1/3 175/1/3
f 182/1/3 176/1/3 181/1/3
f 183/4/4 184/4/4 185/4/4
f 185/4/4 184/4/4 186/4/4
f 186/4/4 184/4/4 187/4/4
f 187/4/4 184/4/4 188/4/4
f 189/4/4 190/4/4 192/4/4
f 191/4/4 192/4/4 193/4/4
f 192/4/4 190/4/4 194/4/4
f 193/4/4 192/4/4 194/4/4
f 195/4/4 196/4/4 197/4/4
f 197/4/4 196/4/4 198/4/4
f 198/4/4 196/4/4 199/4/4
f 199/4/4 196/4/4 200/4/4
f 201/4/4 202/4/4 204/4/4
f 203/4/4 204/4/4 205/4/4
f 204/4/4 202/4/4 206/4/4
f 205/4/4 204/4/4 206/4/4
f 207/1/4 208/1/4 209/1/4
f 209/1/4 208/1/4 210/1/4
f 207/1/4 209/1/4 211/1/4
f 209/2/4 210/2/4 212/2/4
f 211/1/4 209/1/4 212/1/4
f 210/1/4 208/1/4 213/1/4
f 212/2/4 210/2/4 213/2/4
f 213/1/4 208/1/4 214/1/4
f 211/2/4 212/2/4 215/2/4
f 212/2/4 213/2/4 215/2/4
f 213/2/4 214/2/4 215/2/4
f 215/2/4 214/2/4 216/2/4
f 211/2/4 215/2/4 217/2/4
f 215/1/4 216/1/4 217/1/4
f 217/1/4 216/1/4 218/1/4
f 211/2/4 217/2/4 219/2/4
f 217/2/4 218/2/4 219/2/4
f 219/2/4 218/2/4 220/2/4
f 220/2/4 218/2/4 221/2/4
f 221/2/4 218/2/4 222/2/4
f 219/1/4 220/1/4 223/1/4
f 220/2/4 221/2/4 223/2/4
f 221/1/4 222/1/4 224/1/4
f 223/2/4 221/2/4 224/2/4
f 219/1/4 223/1/4 225/1/4
f 223/1/4 224/1/4 225/1/4
f 224/1/4 222/1/4 226/1/4
f 225/1/4 224/1/4 226/1/4
f 233/2/5 229/2/5 228/2/5
f 233/1/5 230/1/5 229/1/5
f 234/2/5 231/2/5 230/2/5
f 234/1/5 230/1/5 233/1/5
f 235/1/5 228/1/5 227/1/5
f 236/2/5 233/2/5 228/2/5
f 236/1/5 228/1/5 235/1/5
f 236/2/5 234/2/5 233/2/5
f 237/2/5 231/2/5 234/2/5
f 237/2/5 234/2/5 236/2/5
f 237/1/5 232/1/5 231/1/5
f 238/1/5 232/1/5 237/1/5
f 243/4/5 240/4/5 239/4/5
f 244/4/5 240/4/5 243/4/5
f 245/4/5 242/4/5 241/4/5
f 246/4/5 242/4/5 245/4/5
f 251/4/5 248/4/5 247/4/5
f 252/4/5 248/4/5 251/4/5
f 253/4/5 250/4/5 249/4/5
f 254/4/5 250/4/5 253/4/5
f 259/4/5 256/4/5 255/4/5
f 260/4/5 256/4/5 259/4/5
f 261/4/5 258/4/5 257/4/5
f 262/4/5 258/4/5 261/4/5
f 263/4/5 259/4/5 255/4/5
f 263/3/5 260/3/5 259/3/5
f 264/4/5 256/4/5 260/4/5
f 264/3/5 260/3/5 263/3/5
f 265/3/5 262/3/5 261/3/5
f 265/4/5 261/4/5 257/4/5
f 266/4/5 258/4/5 262/4/5
f 266/3/5 262/3/5 265/3/5
f 267/4/5 263/4/5 255/4/5
f 267/4/5 264/4/5 263/4/5
f 268/4/5 256/4/5 264/4/5
f 268/4/5 264/4/5 267/4/5
f 269/4/5 265/4/5 257/4/5
f 269/4/5 266/4/5 265/4/5
f 270/4/5 258/4/5 266/4/5
f 270/4/5 266/4/5 269/4/5
f 275/4/5 272/4/5 271/4/5
f 276/4/5 272/4/5 275/4/5
f 277/4/5 274/4/5 273/4/5
f 278/4/5 274/4/5 277/4/5
f 279/4/5 275/4/5 271/4/5
f 279/3/5 276/3/5 275/3/5
f 280/4/5 272/4/5 276/4/5
f 280/3/5 276/3/5 279/3/5
f 281/3/5 278/3/5 277/3/5
f 281/4/5 277/4/5 273/4/5
f 282/4/5 274/4/5 278/4/5
f 282/3/5 278/3/5 281/3/5
f 283/4/5 279/4/5 271/4/5
f 283/4/5 280/4/5 279/4/5
f 284/4/5 272/4/5 280/4/5
f 284/4/5 280/4/5 283/4/5
f 285/4/5 281/4/5 273/4/5
f 285/4/5 282/4/5 281/4/5
f 286/4/5 274/4/5 282/4/5
f 286/4/5 282/4/5 285/4/5
f 291/2/5 288/2/5 287/2/5
f 291/1/5 289/1/5 288/1/5
f 292/2/5 290/2/5 289/2/5
f 292/1/5 289/1/5 291/1/5
f 293/2/5 291/2/5 287/2/5
f 293/2/5 292/2/5 291/2/5
f 294/2/5 292/2/5 293/2/5
f 295/2/5 292/2/5 294/2/5
f 296/2/5 290/2/5 292/2/5
f 296/2/5 292/2/5 295/2/5
f 298/2/5 295/2/5 294/2/5
f 299/2/5 295/2/5 298/2/5
f 301/2/5 298/2/5 297/2/5
f 301/2/5 300/2/5 299/2/5
f 301/2/5 299/2/5 298/2/5
f 302/2/5 300/2/5 301/2/5
f 303/2/5 300/2/5 302/2/5
f 304/2/5 300/2/5 303/2/5
f 306/2/5 303/2/5 302/2/5
f 307/2/5 303/2/5 306/2/5
f 309/2/5 306/2/5 305/2/5
f 309/2/5 308/2/5 307/2/5
f 309/2/5 307/2/5 306/2/5
f 310/2/5 308/2/5 309/2/5
f 315/2/5 312/2/5 311/2/5
f 315/1/5 313/1/5 312/1/5
f 316/2/5 314/2/5 313/2/5
f 316/1/5 313/1/5 315/1/5
f 317/2/5 315/2/5 311/2/5
f 317/2/5 316/2/5 315/2/5
f 318/2/5 314/2/5 316/2/5
f 318/2/5 316/2/5 317/2/5
f 319/2/6 320/2/6 323/2/6
f 320/1/6 321/1/6 324/1/6
f 323/2/6 320/2/6 324/2/6
f 321/2/6 322/2/6 325/2/6
f 324/1/6 321/1/6 325/1/6
f 325/2/6 322/2/6 326/2/6
f 327/2/6 328/2/6 331/2/6
f 328/1/6 329/1/6 331/1/6
f 329/2/6 330/2/6 332/2/6
f 331/1/6 329/1/6 332/1/6
f 327/2/6 331/2/6 333/2/6
f 331/2/6 332/2/6 333/2/6
f 332/2/6 330/2/6 334/2/6
f 333/2/6 332/2/6 334/2/6
f 335/1/6 336/1/6 341/1/6
f 336/2/6 337/2/6 342/2/6
f 341/1/6 336/1/6 342/1/6
f 337/1/6 338/1/6 343/1/6
f 342/2/6 337/2/6 343/2/6
f 338/2/6 339/2/6 344/2/6
f 343/1/6 338/1/6 344/1/6
f 339/1/6 340/1/6 345/1/6
f 344/2/6 339/2/6 345/2/6
f 345/1/6 340/1/6 346/1/6
